<?xml version="1.0" standalone="no"?>
<!DOCTYPE svg PUBLIC "-//W3C//DTD SVG 20010904//EN"
 "http://www.w3.org/TR/2001/REC-SVG-20010904/DTD/svg10.dtd">
<svg version="1.0" xmlns="http://www.w3.org/2000/svg"
 width="613.000000pt" height="407.000000pt" viewBox="0 0 613.000000 407.000000"
 preserveAspectRatio="xMidYMid meet">
<metadata>
Created by potrace 1.16, written by Peter Selinger 2001-2019
</metadata>
<g transform="translate(0.000000,407.000000) scale(0.100000,-0.100000)"
fill="#000000" stroke="none">
<path d="M827 3189 l-557 -560 1 -617 c1 -339 4 -643 8 -676 l7 -59 135 -129
c248 -240 364 -354 410 -404 82 -89 540 -529 561 -538 17 -9 34 5 125 97 59
59 108 107 109 107 4 0 212 203 584 571 305 302 310 307 308 345 -1 38 -1 38
-5 6 -3 -18 -8 -32 -13 -30 -5 2 -124 117 -264 256 l-256 253 0 -519 0 -518
-39 -38 -38 -37 5 588 4 588 -256 255 -256 255 -1 550 c-1 302 -4 609 -8 681
l-6 132 -558 -559z m56 -441 c4 -260 7 -826 7 -1258 l0 -785 -40 41 -41 40 0
1182 0 1182 28 35 c15 19 31 35 34 35 3 0 9 -213 12 -472z"/>
<path d="M2285 2862 l220 -222 5 -633 5 -632 3 634 2 634 -147 150 c-82 82
-184 181 -228 220 -44 39 19 -29 140 -151z"/>
<path d="M2795 2805 c-47 -17 -72 -47 -80 -96 -9 -49 16 -104 57 -129 l33 -20
-47 0 c-47 0 -48 -1 -48 -30 0 -45 24 -93 56 -115 22 -14 47 -19 99 -19 80 0
128 21 148 66 12 28 27 37 27 17 0 -5 4 -8 9 -5 5 4 5 18 -2 36 -8 21 -8 41 0
70 5 22 7 43 3 45 -9 6 -20 -18 -21 -48 0 -15 -2 -17 -6 -7 -12 33 -49 61
-114 86 -73 27 -90 41 -68 55 21 13 28 11 53 -16 18 -20 33 -25 69 -25 50 0
58 9 46 54 -23 80 -117 115 -214 81z m145 -15 c27 -14 50 -46 56 -78 6 -32 6
-32 -34 -32 -31 0 -43 5 -56 25 -19 29 -66 34 -86 10 -19 -23 1 -40 81 -71 83
-33 109 -61 109 -118 0 -77 -50 -116 -148 -116 -68 0 -106 22 -128 76 -21 49
-18 54 31 54 28 0 45 -4 45 -12 0 -41 73 -63 105 -32 25 25 14 37 -61 67 -87
34 -124 72 -124 127 0 74 73 126 160 113 19 -3 42 -9 50 -13z"/>
<path d="M2730 2115 l0 -185 145 0 145 0 0 50 0 50 -90 0 c-83 0 -90 2 -90 20
0 17 8 19 78 22 l77 3 3 48 3 47 -80 0 c-64 0 -81 3 -81 15 0 11 19 15 88 17
l87 3 0 45 0 45 -142 3 -143 3 0 -186z m270 140 l0 -35 -85 0 -85 0 0 -30 0
-30 80 0 80 0 0 -35 0 -35 -80 0 -80 0 0 -35 0 -35 91 0 90 0 -3 -37 -3 -38
-130 0 -130 0 -3 173 -2 172 130 0 130 0 0 -35z"/>
<path d="M2795 1836 c-159 -59 -149 -342 13 -386 87 -23 178 13 207 84 12 28
13 28 20 8 3 -12 10 -20 15 -17 4 3 3 21 -3 41 -8 26 -8 43 0 65 6 16 8 31 3
34 -9 6 -20 -18 -20 -43 0 -14 -8 -16 -48 -14 -43 3 -49 1 -70 -27 -45 -61
-107 -27 -107 58 0 89 59 131 107 76 17 -20 31 -25 70 -25 46 0 48 1 48 28 0
34 -31 86 -64 107 -35 23 -122 28 -171 11z m169 -29 c26 -18 60 -82 51 -97
-12 -20 -69 -11 -90 15 -30 37 -67 41 -100 12 -23 -19 -29 -34 -33 -80 -5 -61
10 -96 47 -116 25 -14 78 4 86 30 5 15 16 19 51 19 l44 0 -15 -37 c-31 -74
-71 -97 -157 -91 -47 3 -64 10 -89 34 -42 39 -59 82 -59 151 0 65 26 128 65
156 51 36 146 38 199 4z"/>
<path d="M2712 1234 c3 -91 5 -99 23 -99 15 0 21 8 23 33 3 29 6 32 38 32 60
0 94 59 60 105 -10 14 -30 20 -80 23 l-67 4 3 -98z"/>
</g>
</svg>
